<svg id="Capa_1" enable-background="new 0 0 512 512" height="512" viewBox="0 0 512 512" width="512" xmlns="http://www.w3.org/2000/svg"><g><path d="m512 464v32h-224l-32-32-32 32h-224v-32h32v-192l32-32 96-32v-74.24l-44.16 35.199-19.84-24.959 160-128 160 128-19.84 24.959-44.16-35.199v74.24l96 32 32 32v192z" fill="#80eaff"/><g fill="#4db5ff"><path d="m160 208v32l-32 16-96 16h-32v-64z"/><path d="m512 208v64h-32l-96-16-32-16v-32z"/><path d="m224 368h64v128h-64z"/><circle cx="256" cy="176" r="64"/><path d="m352 432h64v32h-64z"/><path d="m352 304h64v32h-64z"/><path d="m352 368h64v32h-64z"/><path d="m96 432h64v32h-64z"/><path d="m96 304h64v32h-64z"/><path d="m96 368h64v32h-64z"/></g><path d="m32 240h128v32h-128z" fill="#37f"/><path d="m352 240h128v32h-128z" fill="#37f"/></g></svg>